<mxfile host="app.diagrams.net" modified="2022-01-21T01:23:54.097Z" agent="5.0 (X11; Linux x86_64) AppleWebKit/537.36 (KHTML, like Gecko) Chrome/96.0.4664.110 Safari/537.36" etag="1W29kSMf3UI3ripuUP31" version="16.4.3" type="github">
  <diagram id="JXB2uNUG1lMiHSOFnsd8" name="Page-1">
    <mxGraphModel dx="2756" dy="2212" grid="1" gridSize="10" guides="1" tooltips="1" connect="1" arrows="1" fold="1" page="1" pageScale="1" pageWidth="827" pageHeight="1169" math="0" shadow="0">
      <root>
        <mxCell id="0" />
        <mxCell id="1" parent="0" />
        <mxCell id="igdBZrubvWAaBo7rHXdO-22" style="edgeStyle=orthogonalEdgeStyle;curved=0;rounded=1;sketch=0;orthogonalLoop=1;jettySize=auto;html=1;exitX=0.75;exitY=0;exitDx=0;exitDy=0;entryX=1;entryY=0.5;entryDx=0;entryDy=0;" edge="1" parent="1" source="igdBZrubvWAaBo7rHXdO-4" target="igdBZrubvWAaBo7rHXdO-12">
          <mxGeometry relative="1" as="geometry">
            <Array as="points">
              <mxPoint x="-190" y="120" />
            </Array>
          </mxGeometry>
        </mxCell>
        <mxCell id="igdBZrubvWAaBo7rHXdO-69" style="edgeStyle=orthogonalEdgeStyle;curved=0;rounded=1;sketch=0;orthogonalLoop=1;jettySize=auto;html=1;exitX=1;exitY=0.5;exitDx=0;exitDy=0;entryX=0;entryY=0.5;entryDx=0;entryDy=0;" edge="1" parent="1" source="igdBZrubvWAaBo7rHXdO-4" target="igdBZrubvWAaBo7rHXdO-24">
          <mxGeometry relative="1" as="geometry" />
        </mxCell>
        <mxCell id="igdBZrubvWAaBo7rHXdO-114" style="edgeStyle=orthogonalEdgeStyle;curved=0;rounded=1;sketch=0;orthogonalLoop=1;jettySize=auto;html=1;exitX=0;exitY=0;exitDx=0;exitDy=0;entryX=1;entryY=0.5;entryDx=0;entryDy=0;" edge="1" parent="1" source="igdBZrubvWAaBo7rHXdO-4" target="igdBZrubvWAaBo7rHXdO-13">
          <mxGeometry relative="1" as="geometry" />
        </mxCell>
        <mxCell id="igdBZrubvWAaBo7rHXdO-115" style="edgeStyle=orthogonalEdgeStyle;curved=0;rounded=1;sketch=0;orthogonalLoop=1;jettySize=auto;html=1;exitX=0;exitY=0.25;exitDx=0;exitDy=0;entryX=1;entryY=0.5;entryDx=0;entryDy=0;" edge="1" parent="1" source="igdBZrubvWAaBo7rHXdO-4" target="igdBZrubvWAaBo7rHXdO-14">
          <mxGeometry relative="1" as="geometry" />
        </mxCell>
        <mxCell id="igdBZrubvWAaBo7rHXdO-118" style="edgeStyle=orthogonalEdgeStyle;curved=0;rounded=1;sketch=0;orthogonalLoop=1;jettySize=auto;html=1;exitX=0;exitY=0.5;exitDx=0;exitDy=0;entryX=1;entryY=0.5;entryDx=0;entryDy=0;" edge="1" parent="1" source="igdBZrubvWAaBo7rHXdO-4" target="igdBZrubvWAaBo7rHXdO-15">
          <mxGeometry relative="1" as="geometry" />
        </mxCell>
        <mxCell id="igdBZrubvWAaBo7rHXdO-129" style="edgeStyle=orthogonalEdgeStyle;curved=0;rounded=1;sketch=0;orthogonalLoop=1;jettySize=auto;html=1;exitX=0;exitY=1;exitDx=0;exitDy=0;entryX=1;entryY=0.5;entryDx=0;entryDy=0;fontSize=24;" edge="1" parent="1" source="igdBZrubvWAaBo7rHXdO-4" target="igdBZrubvWAaBo7rHXdO-125">
          <mxGeometry relative="1" as="geometry">
            <Array as="points">
              <mxPoint x="-236" y="320" />
              <mxPoint x="-400" y="320" />
            </Array>
          </mxGeometry>
        </mxCell>
        <mxCell id="igdBZrubvWAaBo7rHXdO-130" style="edgeStyle=orthogonalEdgeStyle;curved=0;rounded=1;sketch=0;orthogonalLoop=1;jettySize=auto;html=1;exitX=0;exitY=1;exitDx=0;exitDy=0;fontSize=24;" edge="1" parent="1" source="igdBZrubvWAaBo7rHXdO-4">
          <mxGeometry relative="1" as="geometry">
            <mxPoint x="-390" y="470" as="targetPoint" />
            <Array as="points">
              <mxPoint x="-236" y="380" />
              <mxPoint x="-379" y="380" />
            </Array>
          </mxGeometry>
        </mxCell>
        <mxCell id="igdBZrubvWAaBo7rHXdO-131" style="edgeStyle=orthogonalEdgeStyle;curved=0;rounded=1;sketch=0;orthogonalLoop=1;jettySize=auto;html=1;exitX=0.25;exitY=1;exitDx=0;exitDy=0;entryX=1;entryY=0;entryDx=0;entryDy=0;fontSize=24;" edge="1" parent="1" source="igdBZrubvWAaBo7rHXdO-4" target="igdBZrubvWAaBo7rHXdO-128">
          <mxGeometry relative="1" as="geometry">
            <Array as="points">
              <mxPoint x="-206" y="400" />
              <mxPoint x="-288" y="400" />
            </Array>
          </mxGeometry>
        </mxCell>
        <mxCell id="igdBZrubvWAaBo7rHXdO-132" style="edgeStyle=orthogonalEdgeStyle;curved=0;rounded=1;sketch=0;orthogonalLoop=1;jettySize=auto;html=1;exitX=0.25;exitY=1;exitDx=0;exitDy=0;entryX=0.409;entryY=-0.015;entryDx=0;entryDy=0;entryPerimeter=0;fontSize=24;" edge="1" parent="1" source="igdBZrubvWAaBo7rHXdO-4" target="igdBZrubvWAaBo7rHXdO-122">
          <mxGeometry relative="1" as="geometry" />
        </mxCell>
        <mxCell id="igdBZrubvWAaBo7rHXdO-133" style="edgeStyle=orthogonalEdgeStyle;curved=0;rounded=1;sketch=0;orthogonalLoop=1;jettySize=auto;html=1;exitX=0.5;exitY=1;exitDx=0;exitDy=0;entryX=0;entryY=0;entryDx=0;entryDy=0;fontSize=24;" edge="1" parent="1" source="igdBZrubvWAaBo7rHXdO-4" target="igdBZrubvWAaBo7rHXdO-127">
          <mxGeometry relative="1" as="geometry" />
        </mxCell>
        <mxCell id="igdBZrubvWAaBo7rHXdO-4" value="sách" style="rounded=0;whiteSpace=wrap;html=1;sketch=0;fontSize=23;" vertex="1" parent="1">
          <mxGeometry x="-236" y="120" width="120" height="60" as="geometry" />
        </mxCell>
        <mxCell id="igdBZrubvWAaBo7rHXdO-97" style="edgeStyle=orthogonalEdgeStyle;curved=0;rounded=1;sketch=0;orthogonalLoop=1;jettySize=auto;html=1;exitX=0;exitY=0.5;exitDx=0;exitDy=0;entryX=1;entryY=0.5;entryDx=0;entryDy=0;" edge="1" parent="1" source="igdBZrubvWAaBo7rHXdO-8" target="igdBZrubvWAaBo7rHXdO-36">
          <mxGeometry relative="1" as="geometry" />
        </mxCell>
        <mxCell id="igdBZrubvWAaBo7rHXdO-98" style="edgeStyle=orthogonalEdgeStyle;curved=0;rounded=1;sketch=0;orthogonalLoop=1;jettySize=auto;html=1;exitX=0;exitY=0.75;exitDx=0;exitDy=0;entryX=0.999;entryY=0.352;entryDx=0;entryDy=0;entryPerimeter=0;" edge="1" parent="1" source="igdBZrubvWAaBo7rHXdO-8" target="igdBZrubvWAaBo7rHXdO-35">
          <mxGeometry relative="1" as="geometry" />
        </mxCell>
        <mxCell id="igdBZrubvWAaBo7rHXdO-99" style="edgeStyle=orthogonalEdgeStyle;curved=0;rounded=1;sketch=0;orthogonalLoop=1;jettySize=auto;html=1;exitX=0;exitY=0;exitDx=0;exitDy=0;entryX=1.011;entryY=0.663;entryDx=0;entryDy=0;entryPerimeter=0;" edge="1" parent="1" source="igdBZrubvWAaBo7rHXdO-8" target="igdBZrubvWAaBo7rHXdO-37">
          <mxGeometry relative="1" as="geometry" />
        </mxCell>
        <mxCell id="igdBZrubvWAaBo7rHXdO-8" value="&lt;font style=&quot;font-size: 19px&quot;&gt;Nhà xuất bản&lt;/font&gt;" style="rounded=0;whiteSpace=wrap;html=1;sketch=0;fontSize=23;" vertex="1" parent="1">
          <mxGeometry x="-600" y="-80" width="120" height="60" as="geometry" />
        </mxCell>
        <mxCell id="igdBZrubvWAaBo7rHXdO-100" style="edgeStyle=orthogonalEdgeStyle;curved=0;rounded=1;sketch=0;orthogonalLoop=1;jettySize=auto;html=1;exitX=0;exitY=0.5;exitDx=0;exitDy=0;entryX=1;entryY=0.5;entryDx=0;entryDy=0;" edge="1" parent="1" source="igdBZrubvWAaBo7rHXdO-9" target="igdBZrubvWAaBo7rHXdO-43">
          <mxGeometry relative="1" as="geometry" />
        </mxCell>
        <mxCell id="igdBZrubvWAaBo7rHXdO-101" style="edgeStyle=orthogonalEdgeStyle;curved=0;rounded=1;sketch=0;orthogonalLoop=1;jettySize=auto;html=1;exitX=0;exitY=0.25;exitDx=0;exitDy=0;" edge="1" parent="1" source="igdBZrubvWAaBo7rHXdO-9" target="igdBZrubvWAaBo7rHXdO-44">
          <mxGeometry relative="1" as="geometry" />
        </mxCell>
        <mxCell id="igdBZrubvWAaBo7rHXdO-9" value="thể loại" style="rounded=0;whiteSpace=wrap;html=1;sketch=0;fontSize=23;" vertex="1" parent="1">
          <mxGeometry x="-590" y="100" width="120" height="60" as="geometry" />
        </mxCell>
        <mxCell id="igdBZrubvWAaBo7rHXdO-104" style="edgeStyle=orthogonalEdgeStyle;curved=0;rounded=1;sketch=0;orthogonalLoop=1;jettySize=auto;html=1;exitX=0;exitY=0.5;exitDx=0;exitDy=0;entryX=1;entryY=0.5;entryDx=0;entryDy=0;" edge="1" parent="1" source="igdBZrubvWAaBo7rHXdO-10" target="igdBZrubvWAaBo7rHXdO-47">
          <mxGeometry relative="1" as="geometry" />
        </mxCell>
        <mxCell id="igdBZrubvWAaBo7rHXdO-105" style="edgeStyle=orthogonalEdgeStyle;curved=0;rounded=1;sketch=0;orthogonalLoop=1;jettySize=auto;html=1;exitX=0;exitY=0.75;exitDx=0;exitDy=0;entryX=1;entryY=0.5;entryDx=0;entryDy=0;" edge="1" parent="1" source="igdBZrubvWAaBo7rHXdO-10" target="igdBZrubvWAaBo7rHXdO-50">
          <mxGeometry relative="1" as="geometry" />
        </mxCell>
        <mxCell id="igdBZrubvWAaBo7rHXdO-107" style="edgeStyle=orthogonalEdgeStyle;curved=0;rounded=1;sketch=0;orthogonalLoop=1;jettySize=auto;html=1;exitX=0;exitY=1;exitDx=0;exitDy=0;entryX=1;entryY=0.5;entryDx=0;entryDy=0;" edge="1" parent="1" source="igdBZrubvWAaBo7rHXdO-10" target="igdBZrubvWAaBo7rHXdO-52">
          <mxGeometry relative="1" as="geometry" />
        </mxCell>
        <mxCell id="igdBZrubvWAaBo7rHXdO-110" style="edgeStyle=orthogonalEdgeStyle;curved=0;rounded=1;sketch=0;orthogonalLoop=1;jettySize=auto;html=1;exitX=0;exitY=1;exitDx=0;exitDy=0;entryX=1;entryY=0.5;entryDx=0;entryDy=0;" edge="1" parent="1" source="igdBZrubvWAaBo7rHXdO-10" target="igdBZrubvWAaBo7rHXdO-51">
          <mxGeometry relative="1" as="geometry" />
        </mxCell>
        <mxCell id="igdBZrubvWAaBo7rHXdO-112" style="edgeStyle=orthogonalEdgeStyle;curved=0;rounded=1;sketch=0;orthogonalLoop=1;jettySize=auto;html=1;exitX=0;exitY=1;exitDx=0;exitDy=0;entryX=1.007;entryY=0.594;entryDx=0;entryDy=0;entryPerimeter=0;" edge="1" parent="1" source="igdBZrubvWAaBo7rHXdO-10" target="igdBZrubvWAaBo7rHXdO-53">
          <mxGeometry relative="1" as="geometry" />
        </mxCell>
        <mxCell id="igdBZrubvWAaBo7rHXdO-10" value="vị trí" style="rounded=0;whiteSpace=wrap;html=1;sketch=0;fontSize=23;" vertex="1" parent="1">
          <mxGeometry x="-570" y="250" width="120" height="60" as="geometry" />
        </mxCell>
        <mxCell id="igdBZrubvWAaBo7rHXdO-148" style="edgeStyle=orthogonalEdgeStyle;curved=0;rounded=1;sketch=0;orthogonalLoop=1;jettySize=auto;html=1;exitX=0;exitY=0.5;exitDx=0;exitDy=0;entryX=1;entryY=0.5;entryDx=0;entryDy=0;fontSize=24;" edge="1" parent="1" source="igdBZrubvWAaBo7rHXdO-12" target="igdBZrubvWAaBo7rHXdO-7">
          <mxGeometry relative="1" as="geometry" />
        </mxCell>
        <mxCell id="igdBZrubvWAaBo7rHXdO-12" value="&lt;font style=&quot;font-size: 12px&quot;&gt;người viết&lt;/font&gt;" style="rhombus;whiteSpace=wrap;html=1;rounded=0;sketch=0;fontSize=19;" vertex="1" parent="1">
          <mxGeometry x="-380" y="-290" width="80" height="50" as="geometry" />
        </mxCell>
        <mxCell id="igdBZrubvWAaBo7rHXdO-113" style="edgeStyle=orthogonalEdgeStyle;curved=0;rounded=1;sketch=0;orthogonalLoop=1;jettySize=auto;html=1;exitX=0;exitY=0.5;exitDx=0;exitDy=0;entryX=1.007;entryY=0.382;entryDx=0;entryDy=0;entryPerimeter=0;" edge="1" parent="1" source="igdBZrubvWAaBo7rHXdO-13" target="igdBZrubvWAaBo7rHXdO-8">
          <mxGeometry relative="1" as="geometry" />
        </mxCell>
        <mxCell id="igdBZrubvWAaBo7rHXdO-13" value="&lt;font style=&quot;font-size: 14px&quot;&gt;xuất bản&lt;/font&gt;" style="rhombus;whiteSpace=wrap;html=1;rounded=0;sketch=0;fontSize=19;" vertex="1" parent="1">
          <mxGeometry x="-420" y="-80" width="80" height="50" as="geometry" />
        </mxCell>
        <mxCell id="igdBZrubvWAaBo7rHXdO-116" style="edgeStyle=orthogonalEdgeStyle;curved=0;rounded=1;sketch=0;orthogonalLoop=1;jettySize=auto;html=1;exitX=0;exitY=0.5;exitDx=0;exitDy=0;entryX=1;entryY=0.5;entryDx=0;entryDy=0;" edge="1" parent="1" source="igdBZrubvWAaBo7rHXdO-14" target="igdBZrubvWAaBo7rHXdO-9">
          <mxGeometry relative="1" as="geometry" />
        </mxCell>
        <mxCell id="igdBZrubvWAaBo7rHXdO-14" value="thuộc" style="rhombus;whiteSpace=wrap;html=1;rounded=0;sketch=0;fontSize=19;" vertex="1" parent="1">
          <mxGeometry x="-410" y="110" width="80" height="50" as="geometry" />
        </mxCell>
        <mxCell id="igdBZrubvWAaBo7rHXdO-120" style="edgeStyle=orthogonalEdgeStyle;curved=0;rounded=1;sketch=0;orthogonalLoop=1;jettySize=auto;html=1;exitX=0;exitY=0.5;exitDx=0;exitDy=0;entryX=1;entryY=0;entryDx=0;entryDy=0;" edge="1" parent="1" source="igdBZrubvWAaBo7rHXdO-15" target="igdBZrubvWAaBo7rHXdO-10">
          <mxGeometry relative="1" as="geometry" />
        </mxCell>
        <mxCell id="igdBZrubvWAaBo7rHXdO-15" value="đặt" style="rhombus;whiteSpace=wrap;html=1;rounded=0;sketch=0;fontSize=19;" vertex="1" parent="1">
          <mxGeometry x="-420" y="230" width="80" height="50" as="geometry" />
        </mxCell>
        <mxCell id="igdBZrubvWAaBo7rHXdO-77" style="edgeStyle=orthogonalEdgeStyle;curved=0;rounded=1;sketch=0;orthogonalLoop=1;jettySize=auto;html=1;exitX=1;exitY=0;exitDx=0;exitDy=0;" edge="1" parent="1" source="igdBZrubvWAaBo7rHXdO-24" target="igdBZrubvWAaBo7rHXdO-72">
          <mxGeometry relative="1" as="geometry" />
        </mxCell>
        <mxCell id="igdBZrubvWAaBo7rHXdO-81" style="edgeStyle=orthogonalEdgeStyle;curved=0;rounded=1;sketch=0;orthogonalLoop=1;jettySize=auto;html=1;exitX=0;exitY=0;exitDx=0;exitDy=0;" edge="1" parent="1" source="igdBZrubvWAaBo7rHXdO-24" target="igdBZrubvWAaBo7rHXdO-70">
          <mxGeometry relative="1" as="geometry">
            <Array as="points">
              <mxPoint x="-43" y="110" />
              <mxPoint x="-120" y="110" />
            </Array>
          </mxGeometry>
        </mxCell>
        <mxCell id="igdBZrubvWAaBo7rHXdO-135" style="edgeStyle=orthogonalEdgeStyle;curved=0;rounded=1;sketch=0;orthogonalLoop=1;jettySize=auto;html=1;exitX=1;exitY=1;exitDx=0;exitDy=0;fontSize=24;" edge="1" parent="1" source="igdBZrubvWAaBo7rHXdO-24" target="igdBZrubvWAaBo7rHXdO-74">
          <mxGeometry relative="1" as="geometry" />
        </mxCell>
        <mxCell id="igdBZrubvWAaBo7rHXdO-137" style="edgeStyle=orthogonalEdgeStyle;curved=0;rounded=1;sketch=0;orthogonalLoop=1;jettySize=auto;html=1;exitX=1;exitY=0.5;exitDx=0;exitDy=0;entryX=0;entryY=0.5;entryDx=0;entryDy=0;fontSize=24;" edge="1" parent="1" source="igdBZrubvWAaBo7rHXdO-24" target="igdBZrubvWAaBo7rHXdO-136">
          <mxGeometry relative="1" as="geometry" />
        </mxCell>
        <mxCell id="igdBZrubvWAaBo7rHXdO-147" style="edgeStyle=orthogonalEdgeStyle;curved=0;rounded=1;sketch=0;orthogonalLoop=1;jettySize=auto;html=1;exitX=0.5;exitY=0;exitDx=0;exitDy=0;entryX=0.5;entryY=1;entryDx=0;entryDy=0;fontSize=24;" edge="1" parent="1" source="igdBZrubvWAaBo7rHXdO-24" target="igdBZrubvWAaBo7rHXdO-73">
          <mxGeometry relative="1" as="geometry" />
        </mxCell>
        <mxCell id="igdBZrubvWAaBo7rHXdO-24" value="Mượn" style="rhombus;whiteSpace=wrap;html=1;rounded=0;sketch=0;fontSize=12;" vertex="1" parent="1">
          <mxGeometry x="-70" y="125" width="110" height="80" as="geometry" />
        </mxCell>
        <mxCell id="igdBZrubvWAaBo7rHXdO-30" value="tên tác giả" style="ellipse;whiteSpace=wrap;html=1;rounded=0;sketch=0;" vertex="1" parent="1">
          <mxGeometry x="-700" y="-280" width="90" height="50" as="geometry" />
        </mxCell>
        <mxCell id="igdBZrubvWAaBo7rHXdO-33" value="thời gian sáng tác" style="ellipse;whiteSpace=wrap;html=1;rounded=0;sketch=0;" vertex="1" parent="1">
          <mxGeometry x="-720" y="-210" width="90" height="50" as="geometry" />
        </mxCell>
        <mxCell id="igdBZrubvWAaBo7rHXdO-35" value="mã NXB" style="ellipse;whiteSpace=wrap;html=1;rounded=0;sketch=0;" vertex="1" parent="1">
          <mxGeometry x="-740" width="90" height="50" as="geometry" />
        </mxCell>
        <mxCell id="igdBZrubvWAaBo7rHXdO-36" value="địa chỉ" style="ellipse;whiteSpace=wrap;html=1;rounded=0;sketch=0;" vertex="1" parent="1">
          <mxGeometry x="-740" y="-65" width="90" height="50" as="geometry" />
        </mxCell>
        <mxCell id="igdBZrubvWAaBo7rHXdO-37" value="tên NXB" style="ellipse;whiteSpace=wrap;html=1;rounded=0;sketch=0;" vertex="1" parent="1">
          <mxGeometry x="-730" y="-130" width="90" height="50" as="geometry" />
        </mxCell>
        <mxCell id="igdBZrubvWAaBo7rHXdO-43" value="tên thể loại" style="ellipse;whiteSpace=wrap;html=1;rounded=0;sketch=0;" vertex="1" parent="1">
          <mxGeometry x="-760" y="140" width="90" height="50" as="geometry" />
        </mxCell>
        <mxCell id="igdBZrubvWAaBo7rHXdO-44" value="mã thể loại" style="ellipse;whiteSpace=wrap;html=1;rounded=0;sketch=0;" vertex="1" parent="1">
          <mxGeometry x="-750" y="80" width="90" height="50" as="geometry" />
        </mxCell>
        <mxCell id="igdBZrubvWAaBo7rHXdO-47" value="Mã vị trí" style="ellipse;whiteSpace=wrap;html=1;rounded=0;sketch=0;" vertex="1" parent="1">
          <mxGeometry x="-760" y="250" width="90" height="50" as="geometry" />
        </mxCell>
        <mxCell id="igdBZrubvWAaBo7rHXdO-50" value="Tầng&amp;nbsp;" style="ellipse;whiteSpace=wrap;html=1;rounded=0;sketch=0;" vertex="1" parent="1">
          <mxGeometry x="-770" y="315" width="90" height="50" as="geometry" />
        </mxCell>
        <mxCell id="igdBZrubvWAaBo7rHXdO-51" value="phòng" style="ellipse;whiteSpace=wrap;html=1;rounded=0;sketch=0;" vertex="1" parent="1">
          <mxGeometry x="-770" y="370" width="90" height="50" as="geometry" />
        </mxCell>
        <mxCell id="igdBZrubvWAaBo7rHXdO-52" value="kệ" style="ellipse;whiteSpace=wrap;html=1;rounded=0;sketch=0;" vertex="1" parent="1">
          <mxGeometry x="-770" y="440" width="90" height="50" as="geometry" />
        </mxCell>
        <mxCell id="igdBZrubvWAaBo7rHXdO-53" value="ngăn" style="ellipse;whiteSpace=wrap;html=1;rounded=0;sketch=0;" vertex="1" parent="1">
          <mxGeometry x="-780" y="510" width="90" height="50" as="geometry" />
        </mxCell>
        <mxCell id="igdBZrubvWAaBo7rHXdO-61" value="mã tác giả&lt;span style=&quot;color: rgba(0 , 0 , 0 , 0) ; font-family: monospace ; font-size: 0px&quot;&gt;%3CmxGraphModel%3E%3Croot%3E%3CmxCell%20id%3D%220%22%2F%3E%3CmxCell%20id%3D%221%22%20parent%3D%220%22%2F%3E%3CmxCell%20id%3D%222%22%20value%3D%22%22%20style%3D%22rhombus%3BwhiteSpace%3Dwrap%3Bhtml%3D1%3Brounded%3D0%3Bsketch%3D0%3BfontSize%3D19%3B%22%20vertex%3D%221%22%20parent%3D%221%22%3E%3CmxGeometry%20x%3D%22360%22%20y%3D%22110%22%20width%3D%2280%22%20height%3D%2250%22%20as%3D%22geometry%22%2F%3E%3C%2FmxCell%3E%3C%2Froot%3E%3C%2FmxGraphModel%3E&lt;/span&gt;" style="ellipse;whiteSpace=wrap;html=1;rounded=0;sketch=0;" vertex="1" parent="1">
          <mxGeometry x="-710" y="-340" width="90" height="50" as="geometry" />
        </mxCell>
        <mxCell id="igdBZrubvWAaBo7rHXdO-70" value="mã mượn" style="ellipse;whiteSpace=wrap;html=1;rounded=0;sketch=0;" vertex="1" parent="1">
          <mxGeometry x="-181.5" y="-130" width="100" height="50" as="geometry" />
        </mxCell>
        <mxCell id="igdBZrubvWAaBo7rHXdO-72" value="ngày mượn" style="ellipse;whiteSpace=wrap;html=1;rounded=0;sketch=0;" vertex="1" parent="1">
          <mxGeometry x="50" y="-40" width="100" height="50" as="geometry" />
        </mxCell>
        <mxCell id="igdBZrubvWAaBo7rHXdO-73" value="thời hạn mượn" style="ellipse;whiteSpace=wrap;html=1;rounded=0;sketch=0;" vertex="1" parent="1">
          <mxGeometry x="-81.5" y="-50" width="100" height="50" as="geometry" />
        </mxCell>
        <mxCell id="igdBZrubvWAaBo7rHXdO-74" value="hình thức mươn" style="ellipse;whiteSpace=wrap;html=1;rounded=0;sketch=0;" vertex="1" parent="1">
          <mxGeometry x="-30" y="240" width="100" height="50" as="geometry" />
        </mxCell>
        <mxCell id="igdBZrubvWAaBo7rHXdO-94" style="edgeStyle=orthogonalEdgeStyle;curved=0;rounded=1;sketch=0;orthogonalLoop=1;jettySize=auto;html=1;exitX=0;exitY=0.25;exitDx=0;exitDy=0;entryX=1;entryY=0.5;entryDx=0;entryDy=0;" edge="1" parent="1" source="igdBZrubvWAaBo7rHXdO-7" target="igdBZrubvWAaBo7rHXdO-61">
          <mxGeometry relative="1" as="geometry" />
        </mxCell>
        <mxCell id="igdBZrubvWAaBo7rHXdO-95" style="edgeStyle=orthogonalEdgeStyle;curved=0;rounded=1;sketch=0;orthogonalLoop=1;jettySize=auto;html=1;exitX=0;exitY=0.5;exitDx=0;exitDy=0;" edge="1" parent="1" source="igdBZrubvWAaBo7rHXdO-7" target="igdBZrubvWAaBo7rHXdO-30">
          <mxGeometry relative="1" as="geometry" />
        </mxCell>
        <mxCell id="igdBZrubvWAaBo7rHXdO-96" style="edgeStyle=orthogonalEdgeStyle;curved=0;rounded=1;sketch=0;orthogonalLoop=1;jettySize=auto;html=1;exitX=0;exitY=0.75;exitDx=0;exitDy=0;entryX=0.999;entryY=0.387;entryDx=0;entryDy=0;entryPerimeter=0;" edge="1" parent="1" source="igdBZrubvWAaBo7rHXdO-7" target="igdBZrubvWAaBo7rHXdO-33">
          <mxGeometry relative="1" as="geometry" />
        </mxCell>
        <mxCell id="igdBZrubvWAaBo7rHXdO-7" value="tác giả" style="rounded=0;whiteSpace=wrap;html=1;sketch=0;fontSize=23;" vertex="1" parent="1">
          <mxGeometry x="-540" y="-285" width="120" height="60" as="geometry" />
        </mxCell>
        <mxCell id="igdBZrubvWAaBo7rHXdO-122" value="&lt;font style=&quot;font-size: 24px&quot;&gt;số lượng&lt;/font&gt;" style="ellipse;whiteSpace=wrap;html=1;rounded=0;sketch=0;" vertex="1" parent="1">
          <mxGeometry x="-240" y="510" width="120" height="80" as="geometry" />
        </mxCell>
        <mxCell id="igdBZrubvWAaBo7rHXdO-125" value="&lt;font style=&quot;font-size: 24px&quot;&gt;mã sách&lt;/font&gt;" style="ellipse;whiteSpace=wrap;html=1;rounded=0;sketch=0;" vertex="1" parent="1">
          <mxGeometry x="-520" y="350" width="120" height="80" as="geometry" />
        </mxCell>
        <mxCell id="igdBZrubvWAaBo7rHXdO-126" value="&lt;font style=&quot;font-size: 24px&quot;&gt;tên sách&lt;/font&gt;" style="ellipse;whiteSpace=wrap;html=1;rounded=0;sketch=0;" vertex="1" parent="1">
          <mxGeometry x="-500" y="440" width="120" height="80" as="geometry" />
        </mxCell>
        <mxCell id="igdBZrubvWAaBo7rHXdO-127" value="&lt;font style=&quot;font-size: 24px&quot;&gt;giá trị&lt;/font&gt;" style="ellipse;whiteSpace=wrap;html=1;rounded=0;sketch=0;" vertex="1" parent="1">
          <mxGeometry x="-110" y="470" width="120" height="80" as="geometry" />
        </mxCell>
        <mxCell id="igdBZrubvWAaBo7rHXdO-128" value="&lt;font style=&quot;font-size: 24px&quot;&gt;năm xuất bản&lt;/font&gt;" style="ellipse;whiteSpace=wrap;html=1;rounded=0;sketch=0;" vertex="1" parent="1">
          <mxGeometry x="-390" y="490" width="120" height="80" as="geometry" />
        </mxCell>
        <mxCell id="igdBZrubvWAaBo7rHXdO-141" style="edgeStyle=orthogonalEdgeStyle;curved=0;rounded=1;sketch=0;orthogonalLoop=1;jettySize=auto;html=1;exitX=0.5;exitY=0;exitDx=0;exitDy=0;entryX=0.081;entryY=0.886;entryDx=0;entryDy=0;entryPerimeter=0;fontSize=24;" edge="1" parent="1" source="igdBZrubvWAaBo7rHXdO-136" target="igdBZrubvWAaBo7rHXdO-138">
          <mxGeometry relative="1" as="geometry" />
        </mxCell>
        <mxCell id="igdBZrubvWAaBo7rHXdO-142" style="edgeStyle=orthogonalEdgeStyle;curved=0;rounded=1;sketch=0;orthogonalLoop=1;jettySize=auto;html=1;exitX=1;exitY=0.5;exitDx=0;exitDy=0;entryX=0;entryY=0.5;entryDx=0;entryDy=0;fontSize=24;" edge="1" parent="1" source="igdBZrubvWAaBo7rHXdO-136" target="igdBZrubvWAaBo7rHXdO-139">
          <mxGeometry relative="1" as="geometry" />
        </mxCell>
        <mxCell id="igdBZrubvWAaBo7rHXdO-145" style="edgeStyle=orthogonalEdgeStyle;curved=0;rounded=1;sketch=0;orthogonalLoop=1;jettySize=auto;html=1;exitX=1;exitY=0.75;exitDx=0;exitDy=0;fontSize=24;" edge="1" parent="1" source="igdBZrubvWAaBo7rHXdO-136" target="igdBZrubvWAaBo7rHXdO-140">
          <mxGeometry relative="1" as="geometry" />
        </mxCell>
        <mxCell id="igdBZrubvWAaBo7rHXdO-146" style="edgeStyle=orthogonalEdgeStyle;curved=0;rounded=1;sketch=0;orthogonalLoop=1;jettySize=auto;html=1;exitX=0.5;exitY=1;exitDx=0;exitDy=0;fontSize=24;" edge="1" parent="1" source="igdBZrubvWAaBo7rHXdO-136" target="igdBZrubvWAaBo7rHXdO-144">
          <mxGeometry relative="1" as="geometry" />
        </mxCell>
        <mxCell id="igdBZrubvWAaBo7rHXdO-136" value="sinh viên" style="rounded=0;whiteSpace=wrap;html=1;sketch=0;fontSize=24;" vertex="1" parent="1">
          <mxGeometry x="100" y="130" width="120" height="60" as="geometry" />
        </mxCell>
        <mxCell id="igdBZrubvWAaBo7rHXdO-138" value="mã sinh viên" style="ellipse;whiteSpace=wrap;html=1;rounded=0;sketch=0;fontSize=24;" vertex="1" parent="1">
          <mxGeometry x="180" y="-30" width="120" height="80" as="geometry" />
        </mxCell>
        <mxCell id="igdBZrubvWAaBo7rHXdO-139" value="&lt;font style=&quot;font-size: 24px&quot;&gt;tên sinh viên&lt;/font&gt;" style="ellipse;whiteSpace=wrap;html=1;rounded=0;sketch=0;" vertex="1" parent="1">
          <mxGeometry x="260" y="90" width="120" height="80" as="geometry" />
        </mxCell>
        <mxCell id="igdBZrubvWAaBo7rHXdO-140" value="&lt;font style=&quot;font-size: 24px&quot;&gt;lớp&lt;/font&gt;" style="ellipse;whiteSpace=wrap;html=1;rounded=0;sketch=0;" vertex="1" parent="1">
          <mxGeometry x="260" y="190" width="120" height="80" as="geometry" />
        </mxCell>
        <mxCell id="igdBZrubvWAaBo7rHXdO-144" value="&lt;font style=&quot;font-size: 24px&quot;&gt;số điện thoại&lt;/font&gt;" style="ellipse;whiteSpace=wrap;html=1;rounded=0;sketch=0;" vertex="1" parent="1">
          <mxGeometry x="150" y="270" width="120" height="80" as="geometry" />
        </mxCell>
      </root>
    </mxGraphModel>
  </diagram>
</mxfile>
